<svg width="50" height="58" viewBox="0 0 50 58" fill="none" xmlns="http://www.w3.org/2000/svg">
<path d="M25 57.146C26.8944 57.146 28.7112 56.3934 30.0508 55.0539C31.3903 53.7143 32.1429 51.8975 32.1429 50.0031H17.8571C17.8571 51.8975 18.6097 53.7143 19.9492 55.0539C21.2888 56.3934 23.1056 57.146 25 57.146ZM25 6.85312L22.1536 7.42812C18.9249 8.08598 16.0226 9.83921 13.938 12.3911C11.8535 14.9429 10.7146 18.1366 10.7143 21.4317C10.7143 23.6746 10.2357 29.2781 9.075 34.796C8.50357 37.5353 7.73214 40.3888 6.70714 42.8603H43.2929C42.2679 40.3888 41.5 37.5388 40.925 34.796C39.7643 29.2781 39.2857 23.6746 39.2857 21.4317C39.2845 18.1373 38.1453 14.9444 36.0608 12.3932C33.9763 9.84213 31.0745 8.08943 27.8464 7.4317L25 6.84955V6.85312ZM47.2143 42.8603C48.0107 44.4567 48.9321 45.721 50 46.4317H0C1.06786 45.721 1.98929 44.4567 2.78571 42.8603C6 36.4317 7.14286 24.5746 7.14286 21.4317C7.14286 12.7888 13.2857 5.57455 21.4464 3.92812C21.3966 3.43153 21.4514 2.93 21.6073 2.45589C21.7632 1.98177 22.0167 1.54559 22.3515 1.17548C22.6863 0.805362 23.095 0.509534 23.5512 0.30707C24.0074 0.104605 24.5009 0 25 0C25.4991 0 25.9926 0.104605 26.4488 0.30707C26.905 0.509534 27.3137 0.805362 27.6485 1.17548C27.9833 1.54559 28.2368 1.98177 28.3927 2.45589C28.5486 2.93 28.6034 3.43153 28.5536 3.92812C32.5903 4.7492 36.2192 6.94013 38.8258 10.1299C41.4325 13.3197 42.8566 17.3123 42.8571 21.4317C42.8571 24.5746 44 36.4317 47.2143 42.8603Z" fill="#EBEBEB"/>
</svg>
