<svg width="30" height="30" viewBox="0 0 30 30" fill="none" xmlns="http://www.w3.org/2000/svg">
<path d="M3 20.5263H11.418L9.7335 25.8426C9.4305 26.8026 9.5835 27.8668 10.146 28.6879C10.7085 29.5089 11.6205 30 12.582 30H15C15.4455 30 15.867 29.7916 16.1535 29.4316L23.2035 20.5263H27C28.6545 20.5263 30 19.11 30 17.3684V3.15789C30 1.41631 28.6545 -1.07288e-06 27 -1.07288e-06H7.0395C6.42917 0.00213193 5.83382 0.199198 5.33217 0.565141C4.83052 0.931084 4.4462 1.44867 4.23 2.04947L0.094502 13.6563C0.0317112 13.8336 -0.000297235 14.0213 2.38419e-06 14.2105V17.3684C2.38419e-06 19.11 1.3455 20.5263 3 20.5263ZM27 17.3684H24V3.15789H27V17.3684ZM3 14.4963L7.0395 3.15789H21V18.3758L14.298 26.8421H12.579L14.922 19.4479C14.9981 19.2106 15.0193 18.9575 14.9839 18.7099C14.9485 18.4622 14.8575 18.2269 14.7185 18.0236C14.5795 17.8203 14.3964 17.6548 14.1845 17.5409C13.9726 17.427 13.738 17.3678 13.5 17.3684H3V14.4963Z" fill="white"/>
</svg>
