<svg width="50" height="50" viewBox="0 0 50 50" fill="none" xmlns="http://www.w3.org/2000/svg">
<path d="M25 0C11.1942 0 0 11.1942 0 25C0 38.8058 11.1942 50 25 50C38.8058 50 50 38.8058 50 25C50 11.1942 38.8058 0 25 0ZM25 45.7589C13.5379 45.7589 4.24107 36.4621 4.24107 25C4.24107 13.5379 13.5379 4.24107 25 4.24107C36.4621 4.24107 45.7589 13.5379 45.7589 25C45.7589 36.4621 36.4621 45.7589 25 45.7589ZM36.0714 12.9408C35.8529 12.8554 35.6196 12.814 35.3851 12.8187C35.1505 12.8235 34.9191 12.8745 34.7042 12.9687L19.5815 19.5871L12.9687 34.7098C12.7679 35.1674 12.7679 35.6864 12.9687 36.144C13.1585 36.5792 13.51 36.9196 13.9565 37.0926C14.1685 37.1763 14.3862 37.2154 14.6094 37.2154C14.8549 37.2154 15.0949 37.1652 15.3237 37.0647L30.4464 30.4464L37.0592 15.3237C37.1556 15.103 37.2066 14.865 37.2089 14.6242C37.2112 14.3833 37.1648 14.1445 37.0726 13.922C36.9803 13.6995 36.8441 13.4979 36.6721 13.3293C36.5001 13.1607 36.2958 13.0286 36.0714 12.9408V12.9408ZM28.6161 26.25L30.0781 27.7121L27.7121 30.0781L26.25 28.6161L17.6339 32.3884L21.4007 23.7723L19.9777 22.3437L22.3437 19.9777L23.7667 21.4007L32.3884 17.6339L28.6161 26.25ZM22.3437 19.9777L19.9777 22.3437L21.4007 23.7723L26.25 28.6161L27.7121 30.0781L30.0781 27.7121L28.6161 26.25L23.7723 21.4007L22.3437 19.9777Z" fill="white"/>
</svg>
