<svg width="85" height="85" viewBox="0 0 85 85" fill="none" xmlns="http://www.w3.org/2000/svg">
<path d="M43.3917 18C39.046 18.0055 34.8799 19.7343 31.8071 22.8071C28.7343 25.8799 27.0055 30.046 27 34.3917H35.3333C35.3333 29.9458 38.95 26.3333 43.3917 26.3333C47.8333 26.3333 51.45 29.9458 51.45 34.3917C51.45 36.8833 49.4458 38.6917 46.3833 41.1667C45.3829 41.9504 44.422 42.7834 43.5042 43.6625C39.3458 47.8167 39.225 52.2292 39.225 52.7208V55.5H47.5583L47.5542 52.8625C47.5583 52.7958 47.6917 51.2542 49.3917 49.5583C50.0167 48.9333 50.8042 48.3083 51.6208 47.65C54.8667 45.0208 59.7792 41.05 59.7792 34.3917C59.7759 30.0461 58.0484 25.8793 54.976 22.8061C51.9036 19.7329 47.7373 18.0044 43.3917 18ZM39.225 59.6667H47.5583V68H39.225V59.6667Z" fill="white"/>
<circle cx="42.5" cy="42.5" r="40.5" stroke="white" stroke-width="4"/>
</svg>
