<svg width="50" height="50" viewBox="0 0 50 50" fill="none" xmlns="http://www.w3.org/2000/svg">
<path fill-rule="evenodd" clip-rule="evenodd" d="M32 12.0625H48C49.1063 12.0625 50 12.9562 50 14.0625V40.0625C50 41.1688 49.1063 42.0625 48 42.0625H22C20.8937 42.0625 20 41.1688 20 40.0625V33H4.5V49.5C4.5 49.775 4.275 50 4 50H0.5C0.225 50 0 49.775 0 49.5V0.5C0 0.225 0.225 0 0.5 0H4C4.275 0 4.5 0.225 4.5 0.5V3H30C31.1063 3 32 3.89375 32 5V12.0625ZM4.5 7.5V28.5H24.5V33V37.5625H45.5V16.5625H32H27.5V7.5H4.5Z" fill="white"/>
</svg>
