<svg width="68" height="68" viewBox="0 0 68 68" fill="none" xmlns="http://www.w3.org/2000/svg">
<path d="M12.7292 45.2372C12.4674 44.7509 11.861 44.5688 11.3747 44.8306C10.8884 45.0923 10.7063 45.6987 10.9681 46.1851L12.7292 45.2372ZM22.0139 11.8486L33.307 14.2566L29.7458 3.27248L22.0139 11.8486ZM54.9958 22.4878C61.2779 34.1594 56.9088 48.7137 45.2372 54.9958L46.1851 56.7569C58.8293 49.9513 63.5625 34.1841 56.7569 21.5399L54.9958 22.4878ZM45.2372 54.9958C33.5656 61.2778 19.0113 56.9088 12.7292 45.2372L10.9681 46.1851C17.7737 58.8293 33.5408 63.5625 46.1851 56.7569L45.2372 54.9958ZM30.7076 10.0639C40.3126 8.7924 50.1331 13.4534 54.9958 22.4878L56.7569 21.5399C51.4875 11.7497 40.847 6.70421 30.4451 8.08123L30.7076 10.0639Z" fill="white"/>
<path d="M40.3625 44.8625L34.3275 38.8275C33.3897 37.89 32.8628 36.6185 32.8625 35.2925V19.8625" stroke="white" stroke-width="2" stroke-linecap="round" stroke-linejoin="round"/>
</svg>
