<svg width="53" height="50" viewBox="0 0 53 50" fill="none" xmlns="http://www.w3.org/2000/svg">
<path d="M51.859 24.5904L27.7987 0.547574C27.6255 0.373994 27.4197 0.236283 27.1932 0.142324C26.9667 0.048364 26.7238 0 26.4786 0C26.2334 0 25.9905 0.048364 25.764 0.142324C25.5375 0.236283 25.3317 0.373994 25.1585 0.547574L1.09816 24.5904C0.397208 25.2913 0 26.2434 0 27.2365C0 29.2984 1.67645 30.9749 3.73843 30.9749H6.27355V48.1308C6.27355 49.1647 7.10886 50 8.14277 50H22.7402V36.9155H29.2824V50H44.8144C45.8483 50 46.6837 49.1647 46.6837 48.1308V30.9749H49.2188C50.2118 30.9749 51.1639 30.5835 51.8649 29.8767C53.3194 28.4164 53.3194 26.0507 51.859 24.5904V24.5904Z" fill="white"/>
</svg>
