<svg width="38" height="50" viewBox="0 0 38 50" fill="none" xmlns="http://www.w3.org/2000/svg">
<path d="M18.7489 0.000103867C13.6272 0.000103867 8.95564 2.0046 5.54675 5.45934C2.2212 8.83489 0.170861 13.5315 0.00416705 18.9324L0 19.0116V19.0949C0.237539 24.2458 2.72962 28.7798 7.23869 33.489L10.1642 45.7451L10.1933 45.8368C10.6101 47.0745 11.4102 48.1039 12.4187 48.8248C13.4647 49.5749 14.7441 50 16.0985 50L21.8661 49.9833L21.9536 49.975C23.2404 49.8663 24.4625 49.3643 25.4542 48.5373C26.4168 47.7288 27.1461 46.6203 27.4545 45.3117L30.7717 32.6013C35.0808 28.459 37.5145 23.6665 37.5145 18.2781C37.5114 15.8646 37.0228 13.4764 36.0777 11.2555C35.1327 9.03472 33.7506 7.0267 32.0136 5.35099C28.4601 1.90414 23.6995 -0.0162712 18.7489 0.000103867V0.000103867ZM8.51807 8.38482C9.85489 7.03337 11.449 5.96352 13.2062 5.23845C14.9634 4.51338 16.8481 4.14779 18.7489 4.16329C22.6141 4.14571 26.3326 5.6415 29.109 8.33064C30.4469 9.61849 31.5117 11.1627 32.2399 12.871C32.9681 14.5794 33.3446 16.4169 33.3472 18.2739C33.3472 22.4038 31.4593 26.3003 27.4962 29.9634L27.0461 30.3801L25.1875 37.5021H12.4812L11.0268 31.4011L10.6226 30.9844C6.2552 26.5503 4.37155 22.833 4.16735 18.9866C4.32571 14.6192 5.97598 10.9644 8.51807 8.38899V8.38482ZM13.4772 41.6695H24.104L23.4164 44.2824L23.4039 44.3366C23.3099 44.7291 23.0904 45.0803 22.7788 45.3367C22.4623 45.6013 22.0757 45.7678 21.6661 45.816L16.0943 45.8368C15.6465 45.8382 15.2095 45.6998 14.8441 45.4409C14.5401 45.2268 14.3054 44.9284 14.169 44.5824L13.4731 41.6695H13.4772Z" fill="white"/>
</svg>
