<svg width="30" height="30" viewBox="0 0 30 30" fill="none" xmlns="http://www.w3.org/2000/svg">
<path d="M27 9.47368H18.582L20.2665 4.15737C20.5695 3.19737 20.4165 2.13316 19.854 1.31211C19.2915 0.491053 18.3795 0 17.418 0H15C14.5545 0 14.133 0.208421 13.8465 0.568421L6.7965 9.47368H3C1.3455 9.47368 0 10.89 0 12.6316V26.8421C0 28.5837 1.3455 30 3 30H22.9605C23.5708 29.9979 24.1662 29.8008 24.6678 29.4349C25.1695 29.0689 25.5538 28.5513 25.77 27.9505L29.9055 16.3437C29.9683 16.1664 30.0003 15.9787 30 15.7895V12.6316C30 10.89 28.6545 9.47368 27 9.47368ZM3 12.6316H6V26.8421H3V12.6316ZM27 15.5037L22.9605 26.8421H9V11.6242L15.702 3.15789H17.421L15.078 10.5521C15.0019 10.7894 14.9807 11.0425 15.0161 11.2901C15.0515 11.5378 15.1425 11.7731 15.2815 11.9764C15.4205 12.1797 15.6036 12.3452 15.8155 12.4591C16.0274 12.573 16.262 12.6322 16.5 12.6316H27V15.5037Z" fill="white"/>
</svg>
