<svg width="50" height="63" viewBox="0 0 50 63" fill="none" xmlns="http://www.w3.org/2000/svg">
<path d="M25 43.8156C31.8938 43.8156 37.5 38.2094 37.5 31.3156V12.5656C37.5 5.6375 31.9219 0 25.0656 0C24.8457 0.00132158 24.6266 0.0275299 24.4125 0.0781249C21.2039 0.233688 18.1779 1.61673 15.9606 3.9411C13.7432 6.26547 12.5042 9.35326 12.5 12.5656V31.3156C12.5 38.2094 18.1062 43.8156 25 43.8156Z" fill="#EBEBEB"/>
<path d="M21.875 56.1V62.5656H28.125V56.1C40.4344 54.5531 50 44.0437 50 31.3156H43.75C43.75 41.6562 35.3406 50.0656 25 50.0656C14.6594 50.0656 6.25 41.6562 6.25 31.3156H0C0 44.0406 9.56563 54.5531 21.875 56.1Z" fill="#EBEBEB"/>
</svg>
