<svg width="80" height="80" viewBox="0 0 80 80" fill="none" xmlns="http://www.w3.org/2000/svg">
<path d="M72 0H8C3.588 0 0 3.588 0 8V80L21.332 64H72C76.412 64 80 60.412 80 56V8C80 3.588 76.412 0 72 0ZM72 56H18.668L8 64V8H72V56Z" fill="white"/>
<path d="M41.5662 15L41.2694 38.4911H37.4566L37.137 15H41.5662ZM37 45.6396C37 44.9653 37.2055 44.3958 37.6164 43.9312C38.0426 43.4666 38.6667 43.2343 39.4886 43.2343C40.2953 43.2343 40.9117 43.4666 41.3379 43.9312C41.7793 44.3958 42 44.9653 42 45.6396C42 46.2841 41.7793 46.8386 41.3379 47.3031C40.9117 47.7677 40.2953 48 39.4886 48C38.6667 48 38.0426 47.7677 37.6164 47.3031C37.2055 46.8386 37 46.2841 37 45.6396Z" fill="white"/>
</svg>
