<svg width="49" height="50" viewBox="0 0 49 50" fill="none" xmlns="http://www.w3.org/2000/svg">
<path d="M28.8063 50H19.7063C19.1361 50.0001 18.5831 49.8053 18.1388 49.4479C17.6946 49.0905 17.3858 48.592 17.2638 48.035L16.2463 43.325C14.8889 42.7303 13.6019 41.9865 12.4088 41.1075L7.8163 42.57C7.27271 42.7433 6.68618 42.7255 6.1541 42.5195C5.62203 42.3135 5.17643 41.9317 4.8913 41.4375L0.331303 33.56C0.049166 33.0653 -0.0567411 32.4896 0.0309086 31.9269C0.118558 31.3642 0.394575 30.8479 0.813802 30.4625L4.3763 27.2125C4.21429 25.7403 4.21429 24.2547 4.3763 22.7825L0.813802 19.54C0.393981 19.1544 0.117589 18.6377 0.0299251 18.0745C-0.0577389 17.5112 0.0485259 16.9349 0.331303 16.44L4.8813 8.5575C5.16643 8.06329 5.61203 7.68148 6.1441 7.47547C6.67618 7.26946 7.26271 7.25165 7.8063 7.425L12.3988 8.8875C13.0088 8.4375 13.6438 8.0175 14.2988 7.6375C14.9313 7.2825 15.5813 6.96 16.2463 6.6725L17.2663 1.9675C17.3877 1.41049 17.6959 0.911719 18.1397 0.553872C18.5835 0.196025 19.1362 0.000599915 19.7063 0H28.8063C29.3764 0.000599915 29.9292 0.196025 30.3729 0.553872C30.8167 0.911719 31.1249 1.41049 31.2463 1.9675L32.2763 6.675C33.6329 7.26975 34.9191 8.01348 36.1113 8.8925L40.7063 7.43C41.2496 7.25729 41.8355 7.27543 42.3671 7.4814C42.8986 7.68738 43.3438 8.06882 43.6288 8.5625L48.1788 16.445C48.7588 17.4625 48.5588 18.75 47.6963 19.5425L44.1338 22.7925C44.2958 24.2647 44.2958 25.7503 44.1338 27.2225L47.6963 30.4725C48.5588 31.2675 48.7588 32.5525 48.1788 33.57L43.6288 41.4525C43.3437 41.9467 42.8981 42.3285 42.366 42.5345C41.8339 42.7405 41.2474 42.7583 40.7038 42.585L36.1113 41.1225C34.9191 42.0009 33.6329 42.7438 32.2763 43.3375L31.2463 48.035C31.1244 48.5915 30.816 49.0897 30.3723 49.4471C29.9285 49.8045 29.376 49.9995 28.8063 50ZM13.3063 35.5725L15.3563 37.0725C15.8188 37.4125 16.2988 37.725 16.7988 38.01C17.2688 38.2825 17.7488 38.5275 18.2463 38.75L20.5788 39.7725L21.7213 45H26.7963L27.9388 39.77L30.2713 38.7475C31.2888 38.2975 32.2563 37.74 33.1538 37.0825L35.2038 35.5825L40.3088 37.2075L42.8463 32.8125L38.8888 29.205L39.1688 26.675C39.2938 25.5675 39.2938 24.45 39.1688 23.345L38.8888 20.815L42.8488 17.2L40.3088 12.8025L35.2063 14.4275L33.1538 12.9275C32.2558 12.2667 31.2894 11.7043 30.2713 11.25L27.9388 10.2275L26.7963 5H21.7213L20.5713 10.23L18.2463 11.25C17.2268 11.6965 16.26 12.2549 15.3638 12.915L13.3113 14.415L8.2113 12.79L5.6688 17.2L9.6263 20.8025L9.3463 23.335C9.2213 24.4425 9.2213 25.56 9.3463 26.665L9.6263 29.195L5.6688 32.8025L8.2063 37.1975L13.3063 35.5725V35.5725ZM24.2463 35C21.5941 35 19.0506 33.9464 17.1752 32.0711C15.2999 30.1957 14.2463 27.6522 14.2463 25C14.2463 22.3478 15.2999 19.8043 17.1752 17.9289C19.0506 16.0536 21.5941 15 24.2463 15C26.8985 15 29.442 16.0536 31.3174 17.9289C33.1927 19.8043 34.2463 22.3478 34.2463 25C34.2463 27.6522 33.1927 30.1957 31.3174 32.0711C29.442 33.9464 26.8985 35 24.2463 35ZM24.2463 20C23.2672 20.001 22.3099 20.2894 21.4933 20.8295C20.6766 21.3696 20.0365 22.1376 19.6523 23.0382C19.2681 23.9388 19.1569 24.9324 19.3322 25.8956C19.5076 26.8589 19.962 27.7495 20.6389 28.4569C21.3158 29.1643 22.1856 29.6574 23.1402 29.875C24.0948 30.0926 25.0923 30.0251 26.009 29.6809C26.9256 29.3367 27.721 28.731 28.2965 27.9389C28.872 27.1468 29.2022 26.2031 29.2463 25.225V26.225V25C29.2463 23.6739 28.7195 22.4021 27.7818 21.4645C26.8442 20.5268 25.5724 20 24.2463 20Z" fill="white"/>
</svg>
