<svg width="30" height="30" viewBox="0 0 30 30" fill="none" xmlns="http://www.w3.org/2000/svg">
<path d="M13.4964 7.58455V1.87273C13.4964 1.37605 13.3383 0.899714 13.0569 0.548509C12.7756 0.197305 12.394 0 11.9961 0C11.6025 0.00206866 11.2253 0.197116 10.9459 0.543091L0.443785 13.6522C0.303165 13.8263 0.191551 14.0334 0.115383 14.2616C0.0392151 14.4898 0 14.7346 0 14.9818C0 15.229 0.0392151 15.4738 0.115383 15.702C0.191551 15.9302 0.303165 16.1374 0.443785 16.3115L10.9459 29.4206C11.1565 29.6783 11.4233 29.8528 11.7129 29.9222C12.0025 29.9917 12.3021 29.9531 12.5743 29.8113C12.8464 29.6694 13.079 29.4305 13.243 29.1246C13.407 28.8186 13.4951 28.4591 13.4964 28.0909V22.2855H14.7716C17.142 22.2413 19.4916 22.8416 21.6575 24.0446C23.8233 25.2476 25.7535 27.0245 27.3141 29.252C27.5022 29.5645 27.7638 29.7958 28.0625 29.9133C28.3611 30.0309 28.6818 30.0288 28.9794 29.9075C29.2823 29.7799 29.5447 29.5348 29.7282 29.2081C29.9117 28.8813 30.0068 28.4899 29.9996 28.0909C29.9996 11.0116 17.8772 8.09019 13.4964 7.58455V7.58455ZM14.7716 18.5026C13.7681 18.4986 12.7656 18.58 11.771 18.746C11.4158 18.8133 11.0918 19.0374 10.8578 19.3776C10.6237 19.7178 10.4953 20.1516 10.4958 20.6V23.5776L3.62441 14.9818L10.4958 6.386V9.36364C10.4958 9.86032 10.6538 10.3367 10.9352 10.6879C11.2166 11.0391 11.5982 11.2364 11.9961 11.2364C13.3613 11.2364 24.1635 11.6109 26.5039 23.278C23.1068 20.1516 18.9922 18.4768 14.7716 18.5026V18.5026Z" fill="white"/>
</svg>
