<svg width="78" height="54" viewBox="0 0 78 54" fill="none" xmlns="http://www.w3.org/2000/svg">
<path d="M27.6229 38.6042L16.7588 49.4683C15.5497 50.6772 14.0092 51.5004 12.3323 51.8339C10.6553 52.1674 8.91712 51.9962 7.33745 51.3419C5.75778 50.6877 4.40758 49.5797 3.45753 48.1581C2.50749 46.7366 2.00027 45.0652 2 43.3554V38.6042L6.96719 13.7719C7.63062 10.4527 9.42356 7.46593 12.041 5.31968C14.6584 3.17344 17.9385 2.00035 21.3234 2H55.8851C59.2699 2.00035 62.5501 3.17344 65.1675 5.31968C67.7849 7.46593 69.5778 10.4527 70.2412 13.7719L75.2084 38.6042V43.3518C75.2082 45.0616 74.7009 46.7329 73.7509 48.1545C72.8008 49.576 71.4506 50.684 69.871 51.3383C68.2913 51.9926 66.5531 52.1638 64.8762 51.8303C63.1992 51.4968 61.6588 50.6736 60.4496 49.4647L49.5855 38.6042H27.6229Z" stroke="white" stroke-width="4" stroke-linecap="round" stroke-linejoin="round"/>
<path d="M27.6229 2L31.2833 9.32084H45.925L49.5855 2" stroke="white" stroke-width="4" stroke-linecap="round" stroke-linejoin="round"/>
</svg>
