<svg width="512" height="115" viewBox="0 0 512 115" fill="none" xmlns="http://www.w3.org/2000/svg">
<path d="M159.889 17.9305C157.981 10.8779 152.472 5.36869 145.419 3.46028C132.731 0 81.6659 0 81.6659 0C81.6659 0 30.6006 0.104857 17.913 3.56513C10.8603 5.47355 5.35114 10.9828 3.44272 18.0354C-0.39504 40.5796 -1.88401 74.9307 3.54758 96.5732C5.45599 103.626 10.9652 109.135 18.0178 111.043C30.7055 114.504 81.7708 114.504 81.7708 114.504C81.7708 114.504 132.836 114.504 145.524 111.043C152.576 109.135 158.086 103.626 159.994 96.5732C164.041 73.9975 165.289 39.6673 159.889 17.9305Z" fill="#FF0000"/>
<path d="M65.4131 81.7883L107.775 57.2518L65.4131 32.7153V81.7883Z" fill="white"/>
<path d="M491.237 33.2396C496.794 33.2396 500.988 34.2882 503.924 36.2805C506.86 38.2728 508.958 41.4185 510.216 45.7176C511.474 50.0167 511.998 55.8887 511.998 63.4384V75.7067H485.05V79.4815L485.47 89.8623C485.784 92.1692 486.309 93.8469 487.147 94.8954C487.986 95.944 489.349 96.4683 491.132 96.4683C493.544 96.4683 495.221 95.5246 496.06 93.6372C497.004 91.7497 497.423 88.604 497.528 84.3049L511.474 85.1438C511.579 85.7729 511.579 86.6118 511.579 87.6603C511.579 94.2663 509.796 99.1946 506.126 102.445C502.456 105.696 497.423 107.373 490.817 107.373C482.848 107.373 477.291 104.857 474.145 99.9286C470.999 95.0003 469.322 87.2409 469.322 76.8601V64.1724C469.678 46.3467 472.813 33.292 491.237 33.2396ZM297.356 34.6028V87.136C297.356 90.2817 297.671 92.5886 298.405 93.9517C299.894 96.8668 303.753 96.1223 305.85 94.6857C307.061 93.8673 308.037 92.7468 308.681 91.4352V34.6028H324.724V106.22H312.141L310.778 97.412H310.464C307.003 104.018 301.865 107.373 295.05 107.373C284.559 107.347 281.993 99.7895 281.382 92.1137L281.342 91.5718C281.262 90.3977 281.225 89.2248 281.209 88.0798V34.6028H297.356ZM380.089 34.6028V87.136C380.089 90.2817 380.403 92.5886 381.137 93.9517C382.626 96.8668 386.485 96.1223 388.582 94.6857C389.793 93.8673 390.769 92.7468 391.413 91.4352V34.6028H407.456V106.22H394.873L393.51 97.412H393.196C389.735 104.018 384.597 107.373 377.782 107.373C367.291 107.347 364.725 99.7895 364.114 92.1137L364.074 91.5718C363.994 90.3977 363.957 89.2248 363.941 88.0798V34.6028H380.089ZM250.8 33.2396C256.043 33.2396 260.342 34.2882 263.488 36.4902C266.633 38.6922 269.045 42.0476 270.513 46.6613C271.981 51.275 272.715 57.4616 272.715 65.1161V75.4969C272.715 83.1515 271.981 89.2332 270.513 93.8469C269.045 98.4606 266.738 101.816 263.488 104.018C260.237 106.115 255.833 107.269 250.381 107.269C244.718 107.373 240.314 106.22 237.064 104.123C233.813 101.921 231.506 98.5654 230.143 93.9517C228.78 89.338 228.151 83.2563 228.151 75.6018V65.221C228.151 57.5664 228.885 51.275 230.458 46.6613C232.031 41.9427 234.442 38.5873 237.798 36.4902C241.153 34.393 245.452 33.2396 250.8 33.2396ZM432.622 4.50884V42.2573H432.727C434.195 39.531 436.082 37.329 438.704 35.6513C441.152 34.0047 444.037 33.1283 446.987 33.1348C450.867 33.1348 453.803 34.1833 456.005 36.1756C458.207 38.2728 459.78 41.5233 460.723 46.0322C461.638 50.4001 462.158 56.4409 462.19 64.0594L462.191 64.8015V76.1261C462.191 86.7166 460.828 94.5809 458.312 99.614C455.69 104.647 451.706 107.164 446.253 107.164C443.212 107.164 440.486 106.43 437.97 105.067C435.742 103.769 433.898 101.908 432.62 99.6751L432.412 99.2994H432.098L430.42 106.115H417.103V4.50884H432.622ZM368.449 8.17883V21.1811H352.511V106.22H336.783V21.1811H320.74V8.17883H368.449ZM195.54 8.17883L195.549 8.21832C195.703 8.9003 197.823 18.3254 200.155 29.3058L200.339 30.1757C200.431 30.6122 200.524 31.0508 200.617 31.4911L200.803 32.3738C200.834 32.5212 200.865 32.6688 200.896 32.8166L201.082 33.7045C201.113 33.8528 201.144 34.0011 201.175 34.1495L201.36 35.041L201.631 36.3438C203.205 43.9476 204.708 51.5738 205.607 57.0421H206.026C206.888 52.1367 208.139 45.8596 209.473 39.4509L209.823 37.7769C209.999 36.9392 210.175 36.1012 210.352 35.2655L210.627 33.9677C213.194 21.8945 215.748 10.6155 216.224 8.52432L216.254 8.38927C216.286 8.25066 216.302 8.17883 216.302 8.17883H232.345L213.786 74.3435V106.115H197.952V74.4484H197.847L179.497 8.17883H195.54ZM250.485 44.3544C248.283 44.3544 246.815 45.5079 245.872 47.9196C244.928 50.3313 244.509 54.0013 244.509 59.1393V81.4738C244.509 86.7166 244.928 90.5963 245.767 92.9032C246.606 95.21 248.179 96.3635 250.485 96.3635C252.687 96.3635 254.26 95.21 255.204 92.9032C256.148 90.5963 256.567 86.7166 256.567 81.4738V59.1393C256.567 54.0013 256.148 50.2264 255.204 47.9196C254.26 45.5079 252.687 44.3544 250.485 44.3544ZM435.453 46.4516C434.175 47.6312 433.266 49.0873 432.725 50.9063L432.622 51.275V91.9595C433.922 94.1615 435.768 95.6295 439.018 95.7343C440.696 95.7343 442.059 95.1052 443.107 93.8469C444.156 92.5886 444.89 90.4915 445.309 87.5555C445.712 84.7369 445.922 80.8554 445.938 75.9108L445.939 75.2872V65.955C445.939 60.2927 445.729 55.9936 445.414 52.9527C444.995 49.9119 444.471 47.7099 443.527 46.4516C441.702 43.8302 437.76 43.8616 435.453 46.4516ZM490.922 44.0399C489.14 44.1447 487.881 44.669 487.147 45.6127C486.309 46.6613 485.784 48.2342 485.47 50.541C485.161 52.8017 485.055 60.7019 485.05 61.017L485.05 66.1647H496.794L496.793 61.6248L496.793 61.7123C496.787 63.2994 496.754 60.7909 496.682 57.7119L496.672 57.2983C496.606 54.5919 496.51 51.5746 496.375 50.541C496.06 48.1293 495.536 46.4516 494.697 45.5079C493.858 44.5642 492.6 44.0399 490.922 44.0399Z" fill="#EBEBEB"/>
</svg>
