<svg width="69" height="50" viewBox="0 0 69 50" fill="none" xmlns="http://www.w3.org/2000/svg">
<path d="M68.9443 24.7845C68.9443 24.6153 68.9443 24.4229 68.9366 24.1998C68.9289 23.5765 68.9135 22.8763 68.8981 22.1299C68.8366 19.9831 68.7288 17.844 68.5595 15.8279C68.3287 13.0502 67.9901 10.7341 67.5285 8.99507C67.0413 7.18028 66.0863 5.52515 64.7589 4.19511C63.4316 2.86507 61.7784 1.90671 59.9646 1.41582C57.787 0.831024 53.5242 0.469375 47.5223 0.246229C44.6676 0.138504 41.6128 0.0692516 38.558 0.0307782C37.4885 0.0153889 36.4958 0.00769468 35.6033 0H33.341C32.4484 0.00769468 31.4558 0.0153889 30.3863 0.0307782C27.3315 0.0692516 24.2767 0.138504 21.422 0.246229C15.4201 0.47707 11.1496 0.838719 8.97968 1.41582C7.16529 1.9055 5.51146 2.86346 4.18393 4.19369C2.85641 5.52391 1.90182 7.17969 1.41582 8.99507C0.946445 10.7341 0.615574 13.0502 0.384734 15.8279C0.215451 17.844 0.107725 19.9831 0.0461679 22.1299C0.0230839 22.8763 0.0153892 23.5765 0.00769456 24.1998C0.00769456 24.4229 0 24.6153 0 24.7845V25.2154C0 25.3847 -1.17526e-07 25.5771 0.00769456 25.8002C0.0153892 26.4235 0.0307786 27.1237 0.0461679 27.8701C0.107725 30.0169 0.215451 32.156 0.384734 34.1721C0.615574 36.9498 0.95414 39.2659 1.41582 41.0049C2.40074 44.6907 5.29394 47.5993 8.97968 48.5842C11.1496 49.169 15.4201 49.5306 21.422 49.7538C24.2767 49.8615 27.3315 49.9307 30.3863 49.9692C31.4558 49.9846 32.4484 49.9923 33.341 50H35.6033C36.4958 49.9923 37.4885 49.9846 38.558 49.9692C41.6128 49.9307 44.6676 49.8615 47.5223 49.7538C53.5242 49.5229 57.7947 49.1613 59.9646 48.5842C63.6503 47.5993 66.5435 44.6984 67.5285 41.0049C67.9978 39.2659 68.3287 36.9498 68.5595 34.1721C68.7288 32.156 68.8366 30.0169 68.8981 27.8701C68.9212 27.1237 68.9289 26.4235 68.9366 25.8002C68.9366 25.5771 68.9443 25.3847 68.9443 25.2154V24.7845V24.7845ZM63.4041 25.1847C63.4041 25.3463 63.4041 25.5232 63.3964 25.731C63.3887 26.3312 63.3733 26.9929 63.3579 27.7085C63.3041 29.7553 63.1964 31.8021 63.0348 33.7027C62.827 36.1804 62.5346 38.2118 62.173 39.5737C61.6959 41.3512 60.2955 42.7593 58.5257 43.2287C56.9098 43.6596 52.8393 44.0058 47.3069 44.2136C44.506 44.3213 41.4897 44.3906 38.4811 44.4291C37.4269 44.4444 36.4497 44.4521 35.5725 44.4521H33.3718L30.4632 44.4291C27.4546 44.3906 24.446 44.3213 21.6374 44.2136C16.105 43.9981 12.0268 43.6596 10.4186 43.2287C8.64881 42.7516 7.24838 41.3512 6.77131 39.5737C6.40966 38.2118 6.11727 36.1804 5.90951 33.7027C5.74792 31.8021 5.64789 29.7553 5.58633 27.7085C5.56325 26.9929 5.55556 26.3235 5.54786 25.731C5.54786 25.5232 5.54017 25.3386 5.54017 25.1847V24.8153C5.54017 24.6537 5.54017 24.4768 5.54786 24.269C5.55556 23.6688 5.57094 23.0071 5.58633 22.2915C5.6402 20.2447 5.74792 18.1979 5.90951 16.2973C6.11727 13.8196 6.40966 11.7882 6.77131 10.4263C7.24838 8.64881 8.64881 7.24069 10.4186 6.77131C12.0345 6.34041 16.105 5.99415 21.6374 5.78639C24.4383 5.67867 27.4546 5.60942 30.4632 5.57094C31.5174 5.55555 32.4946 5.54786 33.3718 5.54786H35.5725L38.4811 5.57094C41.4897 5.60942 44.4983 5.67867 47.3069 5.78639C52.8393 6.00185 56.9175 6.34041 58.5257 6.77131C60.2955 7.24838 61.6959 8.64881 62.173 10.4263C62.5346 11.7882 62.827 13.8196 63.0348 16.2973C63.1964 18.1979 63.2964 20.2447 63.3579 22.2915C63.381 23.0071 63.3887 23.6765 63.3964 24.269C63.3964 24.4768 63.4041 24.6614 63.4041 24.8153V25.1847ZM27.6239 35.3109L45.4755 24.9231L27.6239 14.6891V35.3109Z" fill="white"/>
</svg>
